<svg width="15" height="16" viewBox="0 0 15 16" fill="none" xmlns="http://www.w3.org/2000/svg">
<path fill-rule="evenodd" clip-rule="evenodd" d="M13.8279 2.59403C14.139 2.59403 14.3981 2.85239 14.3981 3.18115V3.4851C14.3981 3.80586 14.139 4.07222 13.8279 4.07222H0.571007C0.259053 4.07222 0 3.80586 0 3.4851V3.18115C0 2.85239 0.259053 2.59403 0.571007 2.59403H2.90327C3.37703 2.59403 3.78934 2.25728 3.89591 1.78215L4.01805 1.23662C4.20787 0.493529 4.83255 0 5.54748 0H8.8506C9.55775 0 10.1894 0.49353 10.3723 1.19743L10.5029 1.78135C10.6087 2.25728 11.0211 2.59403 11.4956 2.59403H13.8279ZM12.6499 13.7076C12.8934 11.4383 13.3197 6.04707 13.3197 5.99268C13.3353 5.8279 13.2816 5.67193 13.175 5.54634C13.0607 5.42876 12.916 5.35917 12.7565 5.35917H1.66156C1.5013 5.35917 1.34883 5.42876 1.24303 5.54634C1.13567 5.67193 1.08277 5.8279 1.09055 5.99268C1.09198 6.00267 1.10728 6.19258 1.13285 6.51007C1.24646 7.92048 1.56289 11.8487 1.76736 13.7076C1.91205 15.077 2.81057 15.9377 4.11206 15.9688C5.11638 15.992 6.15104 16 7.20904 16C8.20557 16 9.21767 15.992 10.2531 15.9688C11.5997 15.9456 12.4975 15.1002 12.6499 13.7076Z" fill="#FB8585"/>
</svg>
