<svg width="28" height="28" viewBox="0 0 28 28" fill="none" xmlns="http://www.w3.org/2000/svg">
<g clip-path="url(#clip0_800_366)">
<path d="M25.1364 7.5L18.7727 14H23.5455C23.5455 19.3869 19.2739 23.75 14 23.75C12.3852 23.75 10.8739 23.3356 9.5375 22.6206L7.21477 24.9931C9.1875 26.2525 11.5023 27 14 27C21.0318 27 26.7273 21.1825 26.7273 14H31.5L25.1364 7.5ZM4.45455 14C4.45455 8.61312 8.72614 4.25 14 4.25C15.6148 4.25 17.1261 4.66438 18.4625 5.37938L20.7852 3.00688C18.8125 1.7475 16.4977 1 14 1C6.96818 1 1.27273 6.8175 1.27273 14H-3.5L2.86364 20.5L9.22727 14H4.45455Z" fill="#607FAD"/>
</g>
<defs>
<clipPath id="clip0_800_366">
<rect width="28" height="28" fill="white"/>
</clipPath>
</defs>
</svg>
