<svg width="207" height="172" viewBox="0 0 207 172" fill="none" xmlns="http://www.w3.org/2000/svg">
<path d="M133.755 28.8735L154.539 63.5126L87.4947 108.543C77.5644 108.543 33.3286 110.446 29.1175 110.769C20.1173 110.843 22.3424 118.477 26.1046 120.266L46.3301 127.968L4.97808 138.005C-1.0576 140.236 1.99092 146.175 5.58843 145.898L17.2077 144.997C15.2281 146.033 10.9395 148.352 9.60254 149.337C8.26882 150.322 7.57451 151.626 7.39367 152.153C5.66596 157.242 10.3776 159.357 13.5876 158.072C10.8491 165.458 18.2831 167.211 21.619 164.951C19.0452 168.755 22.6266 170.88 26.4824 170.328L95.2613 154.956L168.009 105.466C183.278 94.4312 215.032 74.8903 202.651 49.2721C190.269 23.6552 177.248 1.54734 177.248 1.54734" stroke="black" stroke-width="3.09" stroke-linecap="round"/>
</svg>
