<svg width="500" height="75" viewBox="0 0 500 75" fill="none" xmlns="http://www.w3.org/2000/svg">
<path fill-rule="evenodd" clip-rule="evenodd" d="M498.455 37.3478C498.455 39.2796 497.133 41.4437 493.914 43.7787C490.734 46.088 485.961 48.3682 479.691 50.5677C467.168 54.9669 448.974 58.9468 426.408 62.3009C381.291 68.9996 318.923 73.1504 250.001 73.1504C181.079 73.1504 118.708 68.9996 73.5931 62.3009C51.0256 58.9468 32.8321 54.9669 20.3084 50.5677C14.0387 48.3682 9.26642 46.088 6.0864 43.7787C2.86897 41.4437 1.54503 39.2796 1.54503 37.3478C1.54503 35.4159 2.86897 33.2518 6.0864 30.9168C9.26642 28.6076 14.0387 26.3274 20.3084 24.1278C32.8321 19.7287 51.0256 15.7456 73.5931 12.3947C118.708 5.69599 181.079 1.54515 250.001 1.54515C318.923 1.54515 381.291 5.69599 426.408 12.3947C448.974 15.7456 467.168 19.7287 479.691 24.1278C485.961 26.3274 490.734 28.6076 493.914 30.9168C497.133 33.2518 498.455 35.4159 498.455 37.3478Z" stroke="black" stroke-width="3.09"/>
</svg>
