<svg width="117" height="173" viewBox="0 0 117 173" fill="none" xmlns="http://www.w3.org/2000/svg">
<path d="M26.8866 1.54902C16.2821 16.238 2.58019 40.8574 1.54883 60.4171M115.451 170.887C109.732 171.224 104.407 171.132 99.4537 170.668M1.63605 66.1119C1.83004 68.2654 2.21807 70.3291 2.82913 72.279M4.06088 75.4336C5.08254 77.5836 6.43404 79.5548 8.15728 81.3075M9.87084 82.8778C12.4703 85.02 15.7486 86.7553 19.7997 87.9897C56.0751 99.0427 82.8582 62.3644 91.7169 42.6437C97.9438 27.4258 97.7369 4.09993 72.231 18.5539C46.725 33.0078 38.458 80.55 37.5139 102.514C37.4331 119.075 44.5556 146.481 68.8686 161.13M73.8604 163.832C75.0244 164.396 76.227 164.933 77.4621 165.441M80.207 166.499C82.3376 167.267 84.5685 167.951 86.8996 168.54M89.6962 169.192C91.9982 169.683 94.3971 170.085 96.8899 170.391" stroke="#FECB4B" stroke-width="3.09" stroke-linecap="round"/>
</svg>
