<svg width="42" height="61" viewBox="0 0 42 61" fill="none" xmlns="http://www.w3.org/2000/svg">
<path d="M10.2059 1.55615C6.58522 6.57085 1.90797 14.9763 1.5559 21.6539M40.4439 59.3713C38.4916 59.485 36.6734 59.4525 34.9816 59.2934M1.58546 23.5961C1.65171 24.3334 1.78455 25.0382 1.99274 25.704M2.41301 26.7791C2.76216 27.5131 3.22367 28.1886 3.81186 28.7862M4.39745 29.3221C5.28477 30.0529 6.40334 30.6472 7.78692 31.0662C20.1723 34.8402 29.3164 22.3197 32.3401 15.5869C34.4662 10.3903 34.3963 2.42657 25.6879 7.36008C16.9794 12.2968 14.157 28.5264 13.8344 36.0257C13.8072 41.6802 16.2385 51.0373 24.5397 56.039M26.2436 56.9614C26.6417 57.153 27.0516 57.3382 27.4732 57.5103M28.4109 57.8708C29.1384 58.1339 29.8994 58.3678 30.6951 58.5691M31.6506 58.79C32.4369 58.9589 33.2554 59.0953 34.107 59.1992" stroke="black" stroke-width="3.09" stroke-linecap="round"/>
</svg>
