<svg width="28" height="28" viewBox="0 0 28 28" fill="none" xmlns="http://www.w3.org/2000/svg">
<path d="M11.6 15.2H3.2C2.88174 15.2 2.57652 15.3264 2.35147 15.5515C2.12643 15.7765 2 16.0817 2 16.4V24.8C2 25.1183 2.12643 25.4235 2.35147 25.6485C2.57652 25.8736 2.88174 26 3.2 26H11.6C11.9183 26 12.2235 25.8736 12.4485 25.6485C12.6736 25.4235 12.8 25.1183 12.8 24.8V16.4C12.8 16.0817 12.6736 15.7765 12.4485 15.5515C12.2235 15.3264 11.9183 15.2 11.6 15.2ZM10.4 23.6H4.4V17.6H10.4V23.6ZM24.8 2H16.4C16.0817 2 15.7765 2.12643 15.5515 2.35147C15.3264 2.57652 15.2 2.88174 15.2 3.2V11.6C15.2 11.9183 15.3264 12.2235 15.5515 12.4485C15.7765 12.6736 16.0817 12.8 16.4 12.8H24.8C25.1183 12.8 25.4235 12.6736 25.6485 12.4485C25.8736 12.2235 26 11.9183 26 11.6V3.2C26 2.88174 25.8736 2.57652 25.6485 2.35147C25.4235 2.12643 25.1183 2 24.8 2ZM23.6 10.4H17.6V4.4H23.6V10.4ZM24.8 15.2H16.4C16.0817 15.2 15.7765 15.3264 15.5515 15.5515C15.3264 15.7765 15.2 16.0817 15.2 16.4V24.8C15.2 25.1183 15.3264 25.4235 15.5515 25.6485C15.7765 25.8736 16.0817 26 16.4 26H24.8C25.1183 26 25.4235 25.8736 25.6485 25.6485C25.8736 25.4235 26 25.1183 26 24.8V16.4C26 16.0817 25.8736 15.7765 25.6485 15.5515C25.4235 15.3264 25.1183 15.2 24.8 15.2ZM23.6 23.6H17.6V17.6H23.6V23.6ZM11.6 2H3.2C2.88174 2 2.57652 2.12643 2.35147 2.35147C2.12643 2.57652 2 2.88174 2 3.2V11.6C2 11.9183 2.12643 12.2235 2.35147 12.4485C2.57652 12.6736 2.88174 12.8 3.2 12.8H11.6C11.9183 12.8 12.2235 12.6736 12.4485 12.4485C12.6736 12.2235 12.8 11.9183 12.8 11.6V3.2C12.8 2.88174 12.6736 2.57652 12.4485 2.35147C12.2235 2.12643 11.9183 2 11.6 2ZM10.4 10.4H4.4V4.4H10.4V10.4Z" fill="#607FAD"/>
</svg>
