<svg width="28" height="28" viewBox="0 0 28 28" fill="none" xmlns="http://www.w3.org/2000/svg">
<path d="M17.6852 11.5602L14.975 14.2715V4.375C14.975 4.11641 14.8723 3.86842 14.6894 3.68557C14.5066 3.50272 14.2586 3.4 14 3.4C13.7414 3.4 13.4934 3.50272 13.3106 3.68557C13.1277 3.86842 13.025 4.11641 13.025 4.375V14.2715L10.3148 11.5602L10.3148 11.5602C10.1318 11.3773 9.88371 11.2745 9.625 11.2745C9.36629 11.2745 9.11817 11.3773 8.93523 11.5602C8.75229 11.7432 8.64951 11.9913 8.64951 12.25C8.64951 12.5087 8.75229 12.7568 8.93523 12.9398L13.3102 17.3147C13.3102 17.3147 13.3102 17.3148 13.3102 17.3148C13.4008 17.4054 13.5083 17.4773 13.6266 17.5264C13.745 17.5754 13.8719 17.6007 14 17.6007C14.1281 17.6007 14.255 17.5754 14.3734 17.5264C14.4917 17.4773 14.5992 17.4054 14.6898 17.3148C14.6898 17.3148 14.6898 17.3147 14.6898 17.3147L19.0648 12.9398C19.1554 12.8492 19.2272 12.7417 19.2762 12.6233C19.3253 12.505 19.3505 12.3781 19.3505 12.25C19.3505 12.1219 19.3253 11.995 19.2762 11.8767C19.2272 11.7583 19.1554 11.6508 19.0648 11.5602C18.9742 11.4696 18.8667 11.3978 18.7483 11.3488C18.63 11.2997 18.5031 11.2745 18.375 11.2745C18.2469 11.2745 18.12 11.2997 18.0017 11.3488C17.8833 11.3978 17.7758 11.4696 17.6852 11.5602L17.6852 11.5602ZM24.6 22.75V16.625C24.6 16.3664 24.4973 16.1184 24.3144 15.9356C24.1316 15.7527 23.8836 15.65 23.625 15.65C23.3664 15.65 23.1184 15.7527 22.9356 15.9356C22.7527 16.1184 22.65 16.3664 22.65 16.625V22.65H5.35V16.625C5.35 16.3664 5.24728 16.1184 5.06443 15.9356C4.88158 15.7527 4.63359 15.65 4.375 15.65C4.11641 15.65 3.86842 15.7527 3.68557 15.9356C3.50272 16.1184 3.4 16.3664 3.4 16.625V22.75C3.4 23.2407 3.59491 23.7112 3.94185 24.0581C4.28879 24.4051 4.75935 24.6 5.25 24.6H22.75C23.2407 24.6 23.7112 24.4051 24.0581 24.0581C24.4051 23.7112 24.6 23.2407 24.6 22.75Z" fill="#607FAD" stroke="#607FAD" stroke-width="0.2"/>
</svg>
